<?xml version="1.0" standalone="no"?>
<!DOCTYPE svg PUBLIC "-//W3C//DTD SVG 20010904//EN"
 "http://www.w3.org/TR/2001/REC-SVG-20010904/DTD/svg10.dtd">
<svg version="1.0" xmlns="http://www.w3.org/2000/svg"
 width="512.000000pt" height="512.000000pt" viewBox="0 0 512.000000 512.000000"
 preserveAspectRatio="xMidYMid meet">
<metadata>
Created by potrace 1.11, written by Peter Selinger 2001-2013
</metadata>
<g transform="translate(0.000000,512.000000) scale(0.100000,-0.100000)"
fill="#000000" stroke="none">
<path d="M2360 4755 c-146 -21 -165 -25 -231 -44 -215 -61 -416 -161 -577
-285 -40 -31 -78 -53 -84 -50 -6 4 -8 3 -5 -3 4 -6 -24 -39 -61 -74 -37 -35
-89 -89 -116 -119 -27 -30 -53 -54 -58 -52 -5 1 -7 -2 -3 -8 3 -5 -12 -33 -34
-62 -139 -186 -253 -454 -296 -698 -21 -124 -27 -363 -12 -520 18 -189 69
-426 131 -605 86 -255 244 -556 408 -781 20 -29 34 -54 31 -58 -4 -3 -2 -6 4
-6 6 0 30 -26 54 -58 159 -212 610 -672 694 -707 53 -23 104 12 105 72 0 35
-9 45 -163 186 -54 50 -94 93 -91 99 4 6 2 8 -4 4 -12 -7 -116 95 -277 275
-203 226 -436 590 -541 844 -62 152 -127 354 -149 465 -32 162 -44 268 -50
443 -4 110 -3 137 7 131 10 -6 10 -4 2 7 -5 8 -9 23 -9 34 7 85 19 162 35 235
19 88 83 279 97 289 4 3 9 14 11 24 7 40 135 249 197 322 235 274 503 437 847
515 116 26 198 35 343 35 220 -1 395 -35 590 -115 105 -44 257 -129 250 -141
-3 -5 0 -7 7 -4 14 6 123 -78 207 -158 208 -200 347 -440 422 -727 11 -45 18
-87 15 -95 -3 -8 -1 -15 3 -17 23 -8 35 -324 19 -483 -12 -121 -50 -313 -89
-445 -49 -172 -231 -580 -285 -641 -8 -8 -14 -19 -14 -22 0 -10 -65 -111 -144
-222 -82 -116 -242 -315 -317 -395 -248 -264 -450 -448 -661 -604 -49 -36 -80
-66 -84 -82 -14 -56 44 -116 97 -99 30 10 222 157 334 255 218 192 438 418
584 600 29 36 60 74 70 85 9 11 28 36 41 55 13 19 27 37 30 40 9 7 170 248
170 253 0 3 18 35 41 72 69 113 157 295 221 455 56 139 135 436 153 575 31
231 26 479 -11 665 -36 179 -88 314 -205 528 -71 130 -271 357 -414 468 -224
175 -528 309 -765 339 -29 4 -62 9 -74 12 -46 11 -316 9 -396 -2z"/>
<path d="M2234 3911 c-64 -16 -131 -56 -190 -115 -68 -69 -100 -127 -116 -215
l-12 -61 -93 0 c-89 0 -95 -1 -118 -26 -24 -26 -25 -32 -25 -174 0 -168 7
-186 72 -197 31 -5 40 -1 62 22 24 26 26 35 26 121 l0 94 40 0 40 0 0 -405 c0
-452 0 -455 69 -528 78 -84 187 -105 273 -54 89 52 138 132 138 226 l0 41 159
0 158 0 5 -63 c6 -70 17 -94 68 -150 74 -81 176 -104 263 -58 63 32 122 99
136 156 7 28 11 181 11 439 l0 396 40 0 40 0 0 -94 c0 -109 12 -133 72 -143
31 -5 40 -1 62 22 25 27 26 31 26 177 0 148 0 149 -26 173 -25 23 -35 25 -120
25 l-92 0 -7 48 c-21 148 -134 282 -280 332 -49 17 -86 19 -352 19 -164 -1
-312 -4 -329 -8z m656 -168 c52 -17 82 -42 119 -98 l26 -40 3 -286 3 -286 -55
-27 c-68 -33 -118 -83 -152 -153 l-26 -53 -248 0 -248 0 -26 54 c-31 63 -99
130 -162 157 l-44 20 0 265 c0 252 9 344 32 344 5 0 8 6 8 13 0 21 50 64 100
86 42 19 65 20 335 20 234 0 299 -3 335 -16z m-773 -905 c31 -29 29 -38 -7
-38 -27 0 -30 3 -30 30 0 36 6 37 37 8z m923 -8 c0 -27 -3 -30 -30 -30 -36 0
-37 6 -8 37 29 31 38 29 38 -7z m-800 -241 c0 -55 -27 -82 -80 -82 -33 0 -48
5 -62 23 -16 20 -25 80 -14 91 3 2 39 4 80 4 l76 0 0 -36z m798 0 c4 -53 -23
-82 -78 -82 -53 0 -80 27 -80 82 l0 36 78 0 77 0 3 -36z"/>
<path d="M2265 3654 c-23 -22 -27 -31 -22 -62 12 -71 16 -72 319 -72 l269 0
24 26 c33 36 33 78 -1 109 l-27 25 -267 0 -267 0 -28 -26z"/>
</g>
</svg>
